HIERARCHY
ROOT Hips
{
	OFFSET -0.150001 87.211151 2.220142
	CHANNELS 6 Xposition Yposition Zposition Xrotation Yrotation Zrotation
	JOINT Pelvis
	{
		OFFSET 0.000000 0.000000 0.000000
		CHANNELS 3 Xrotation Yrotation Zrotation
		JOINT LeftUpLeg
		{
			OFFSET 12.016979 -9.376381 -2.439418
			CHANNELS 3 Xrotation Yrotation Zrotation
			JOINT LeftLeg
			{
				OFFSET -0.817380 -32.836784 2.110571
				CHANNELS 3 Xrotation Yrotation Zrotation
				JOINT LeftFoot
				{
					OFFSET -0.783454 -32.055588 -0.570427
					CHANNELS 3 Xrotation Yrotation Zrotation
					JOINT LeftToeBase
					{
						OFFSET 0.728348 -11.045863 13.180651
						CHANNELS 3 Xrotation Yrotation Zrotation
						End Site
						{
							OFFSET 0.000000 17.212528 0.000000
						}
					}
				}
				JOINT LeftPantLeg
				{
					OFFSET -0.409309 -16.703976 -3.143619
					CHANNELS 3 Xrotation Yrotation Zrotation
					End Site
					{
						OFFSET 0.000000 24.536182 0.000000
					}
				}
			}
			JOINT Left_Butt
			{
				OFFSET -6.595482 1.489731 -3.183693
				CHANNELS 3 Xrotation Yrotation Zrotation
				End Site
				{
					OFFSET 0.000000 20.194176 0.000000
				}
			}
		}
		JOINT RightUpLeg
		{
			OFFSET -11.716976 -9.376381 -2.439418
			CHANNELS 3 Xrotation Yrotation Zrotation
			JOINT RightLeg
			{
				OFFSET 0.806788 -32.837044 2.110606
				CHANNELS 3 Xrotation Yrotation Zrotation
				JOINT RightFoot
				{
					OFFSET 0.794045 -32.055328 -0.570462
					CHANNELS 3 Xrotation Yrotation Zrotation
					JOINT RightToeBase
					{
						OFFSET -0.728348 -11.045862 13.180651
						CHANNELS 3 Xrotation Yrotation Zrotation
						End Site
						{
							OFFSET 0.000000 17.212528 0.000000
						}
					}
				}
				JOINT RightPantLeg
				{
					OFFSET 0.420190 -16.703716 -3.143653
					CHANNELS 3 Xrotation Yrotation Zrotation
					End Site
					{
						OFFSET 0.000000 24.536198 0.000000
					}
				}
			}
			JOINT Right_Butt
			{
				OFFSET 6.595978 1.489731 -3.183693
				CHANNELS 3 Xrotation Yrotation Zrotation
				End Site
				{
					OFFSET 0.000000 20.194397 0.000000
				}
			}
		}
	}
	JOINT Spine
	{
		OFFSET -0.062379 7.848404 3.918342
		CHANNELS 3 Xrotation Yrotation Zrotation
		JOINT Spine1
		{
			OFFSET -0.072775 11.422256 0.713384
			CHANNELS 3 Xrotation Yrotation Zrotation
			JOINT Spine2
			{
				OFFSET -0.083171 13.054008 -1.931563
				CHANNELS 3 Xrotation Yrotation Zrotation
				JOINT Neck
				{
					OFFSET -0.092225 14.121773 -5.138807
					CHANNELS 3 Xrotation Yrotation Zrotation
					JOINT Head
					{
						OFFSET 0.000171 10.447388 -0.842032
						CHANNELS 3 Xrotation Yrotation Zrotation
						JOINT Visor
						{
							OFFSET 0.457139 25.671173 16.550411
							CHANNELS 3 Xrotation Yrotation Zrotation
							End Site
							{
								OFFSET 0.000000 26.061493 0.000000
							}
						}
						JOINT HairMidA
						{
							OFFSET 0.459357 31.585358 8.437352
							CHANNELS 3 Xrotation Yrotation Zrotation
							End Site
							{
								OFFSET 0.000000 26.061493 0.000000
							}
						}
						JOINT HairMidB
						{
							OFFSET 0.464023 33.309235 -8.389654
							CHANNELS 3 Xrotation Yrotation Zrotation
							End Site
							{
								OFFSET 0.000000 26.061493 0.000000
							}
						}
						JOINT HairMidC
						{
							OFFSET 0.466553 27.991165 -17.375053
							CHANNELS 3 Xrotation Yrotation Zrotation
							End Site
							{
								OFFSET 0.000000 26.061493 0.000000
							}
						}
						JOINT HairMidD
						{
							OFFSET 0.467668 17.888062 -21.169472
							CHANNELS 3 Xrotation Yrotation Zrotation
							End Site
							{
								OFFSET 0.000000 26.061493 0.000000
							}
						}
						JOINT HairMidE
						{
							OFFSET 5.325659 3.514648 -14.369741
							CHANNELS 3 Xrotation Yrotation Zrotation
							End Site
							{
								OFFSET 0.000000 26.061493 0.000000
							}
						}
						JOINT HairMidF
						{
							OFFSET -4.394134 3.514587 -14.372442
							CHANNELS 3 Xrotation Yrotation Zrotation
							End Site
							{
								OFFSET 0.000000 26.061493 0.000000
							}
						}
						JOINT HairLeftA
						{
							OFFSET 15.319869 25.746521 2.623347
							CHANNELS 3 Xrotation Yrotation Zrotation
							End Site
							{
								OFFSET 0.000000 26.061493 0.000000
							}
						}
						JOINT HairLeftB
						{
							OFFSET 12.619466 29.289368 -8.731475
							CHANNELS 3 Xrotation Yrotation Zrotation
							End Site
							{
								OFFSET 0.000000 26.061493 0.000000
							}
						}
						JOINT HairLeftC
						{
							OFFSET 15.714844 15.959915 2.909834
							CHANNELS 3 Xrotation Yrotation Zrotation
							End Site
							{
								OFFSET 0.000000 26.061493 0.000000
							}
						}
						JOINT HairLeftD
						{
							OFFSET 16.101723 18.437363 -7.553188
							CHANNELS 3 Xrotation Yrotation Zrotation
							End Site
							{
								OFFSET 0.000000 26.061493 0.000000
							}
						}
						JOINT HairLeftE
						{
							OFFSET 9.731930 17.914993 -18.316845
							CHANNELS 3 Xrotation Yrotation Zrotation
							End Site
							{
								OFFSET 0.000000 26.061493 0.000000
							}
						}
						JOINT HairLeftF
						{
							OFFSET 11.204299 4.953644 -9.668147
							CHANNELS 3 Xrotation Yrotation Zrotation
							End Site
							{
								OFFSET 0.000000 26.061493 0.000000
							}
						}
						JOINT HairRightA
						{
							OFFSET -14.397850 25.746338 2.615088
							CHANNELS 3 Xrotation Yrotation Zrotation
							End Site
							{
								OFFSET 0.000000 26.061493 0.000000
							}
						}
						JOINT HairRightB
						{
							OFFSET -11.691177 29.289230 -8.738231
							CHANNELS 3 Xrotation Yrotation Zrotation
							End Site
							{
								OFFSET 0.000000 26.061493 0.000000
							}
						}
						JOINT HairRightC
						{
							OFFSET -14.792866 15.959732 2.901356
							CHANNELS 3 Xrotation Yrotation Zrotation
							End Site
							{
								OFFSET 0.000000 26.061493 0.000000
							}
						}
						JOINT HairRightD
						{
							OFFSET -15.173956 18.437164 -7.561880
							CHANNELS 3 Xrotation Yrotation Zrotation
							End Site
							{
								OFFSET 0.000000 26.061493 0.000000
							}
						}
						JOINT HairRightE
						{
							OFFSET -8.798178 17.914886 -18.321995
							CHANNELS 3 Xrotation Yrotation Zrotation
							End Site
							{
								OFFSET 0.000000 26.061493 0.000000
							}
						}
						JOINT HairRightF
						{
							OFFSET -10.275196 4.953506 -9.674116
							CHANNELS 3 Xrotation Yrotation Zrotation
							End Site
							{
								OFFSET 0.000000 26.061493 0.000000
							}
						}
					}
				}
				JOINT LeftShoulder
				{
					OFFSET 5.133502 7.341248 -1.867558
					CHANNELS 3 Xrotation Yrotation Zrotation
					JOINT LeftArm
					{
						OFFSET 8.073057 0.933060 -2.176591
						CHANNELS 3 Xrotation Yrotation Zrotation
						JOINT LeftForeArm
						{
							OFFSET 31.170431 -0.110054 -2.516341
							CHANNELS 3 Xrotation Yrotation Zrotation
							JOINT LeftHand
							{
								OFFSET 31.758984 -0.038307 -0.873058
								CHANNELS 3 Xrotation Yrotation Zrotation
								JOINT LeftHandThumb1
								{
									OFFSET 3.014229 -1.208282 4.882164
									CHANNELS 3 Xrotation Yrotation Zrotation
									JOINT LeftHandThumb2
									{
										OFFSET 2.436516 -1.204407 1.408011
										CHANNELS 3 Xrotation Yrotation Zrotation
										JOINT LeftHandThumb3
										{
											OFFSET 2.254616 -1.535309 0.973410
											CHANNELS 3 Xrotation Yrotation Zrotation
											End Site
											{
												OFFSET 0.000000 2.896202 0.000000
											}
										}
									}
								}
								JOINT LeftHandIndex1
								{
									OFFSET 8.516617 0.916695 3.193901
									CHANNELS 3 Xrotation Yrotation Zrotation
									JOINT LeftHandIndex2
									{
										OFFSET 3.305534 -0.513794 0.148831
										CHANNELS 3 Xrotation Yrotation Zrotation
										JOINT LeftHandIndex3
										{
											OFFSET 3.149483 -1.032883 -0.004956
											CHANNELS 3 Xrotation Yrotation Zrotation
											End Site
											{
												OFFSET 0.000000 3.314529 0.000000
											}
										}
									}
								}
								JOINT LeftHandMiddle1
								{
									OFFSET 8.085388 0.797127 0.009041
									CHANNELS 3 Xrotation Yrotation Zrotation
									JOINT LeftHandMiddle2
									{
										OFFSET 4.055710 -0.878586 -0.370356
										CHANNELS 3 Xrotation Yrotation Zrotation
										JOINT LeftHandMiddle3
										{
											OFFSET 2.822098 -1.032654 -0.279992
											CHANNELS 3 Xrotation Yrotation Zrotation
											End Site
											{
												OFFSET 0.000000 3.018112 0.000000
											}
										}
									}
								}
								JOINT LeftHandRing1
								{
									OFFSET 8.600105 0.164856 -2.793547
									CHANNELS 3 Xrotation Yrotation Zrotation
									JOINT LeftHandRing2
									{
										OFFSET 3.528015 -0.934578 -0.396605
										CHANNELS 3 Xrotation Yrotation Zrotation
										JOINT LeftHandRing3
										{
											OFFSET 2.593292 -0.815781 -0.236382
											CHANNELS 3 Xrotation Yrotation Zrotation
											End Site
											{
												OFFSET 0.000000 2.728836 0.000000
											}
										}
									}
								}
								JOINT LeftHandPinky1
								{
									OFFSET 8.001732 -1.051186 -4.918592
									CHANNELS 3 Xrotation Yrotation Zrotation
									JOINT LeftHandPinky2
									{
										OFFSET 2.860458 -0.755989 -0.813781
										CHANNELS 3 Xrotation Yrotation Zrotation
										JOINT LeftHandPinky3
										{
											OFFSET 2.324455 -0.524551 -0.249960
											CHANNELS 3 Xrotation Yrotation Zrotation
											End Site
											{
												OFFSET 0.000000 2.395981 0.000000
											}
										}
									}
								}
							}
							JOINT LeftSleeve
							{
								OFFSET 19.689919 -0.223915 -0.065017
								CHANNELS 3 Xrotation Yrotation Zrotation
								End Site
								{
									OFFSET 0.000000 25.731148 0.000000
								}
							}
						}
					}
				}
				JOINT RightShoulder
				{
					OFFSET -4.395899 7.341194 -1.870206
					CHANNELS 3 Xrotation Yrotation Zrotation
					JOINT RightArm
					{
						OFFSET -8.071857 0.932961 -2.181078
						CHANNELS 3 Xrotation Yrotation Zrotation
						JOINT RightForeArm
						{
							OFFSET -31.169025 -0.110435 -2.533666
							CHANNELS 3 Xrotation Yrotation Zrotation
							JOINT RightHand
							{
								OFFSET -31.758495 -0.038696 -0.890710
								CHANNELS 3 Xrotation Yrotation Zrotation
								JOINT RightHandThumb1
								{
									OFFSET -3.016930 -1.208313 4.880487
									CHANNELS 3 Xrotation Yrotation Zrotation
									JOINT RightHandThumb2
									{
										OFFSET -2.437279 -1.204437 1.406657
										CHANNELS 3 Xrotation Yrotation Zrotation
										JOINT RightHandThumb3
										{
											OFFSET -2.255142 -1.535332 0.972157
											CHANNELS 3 Xrotation Yrotation Zrotation
											End Site
											{
												OFFSET 0.000000 2.896202 0.000000
											}
										}
									}
								}
								JOINT RightHandIndex1
								{
									OFFSET -8.518402 0.916595 3.189166
									CHANNELS 3 Xrotation Yrotation Zrotation
									JOINT RightHandIndex2
									{
										OFFSET -3.305611 -0.513840 0.146994
										CHANNELS 3 Xrotation Yrotation Zrotation
										JOINT RightHandIndex3
										{
											OFFSET -3.149467 -1.032913 -0.006706
											CHANNELS 3 Xrotation Yrotation Zrotation
											End Site
											{
												OFFSET 0.000000 3.314529 0.000000
											}
										}
									}
								}
								JOINT RightHandMiddle1
								{
									OFFSET -8.085396 0.797043 0.004547
									CHANNELS 3 Xrotation Yrotation Zrotation
									JOINT RightHandMiddle2
									{
										OFFSET -4.055504 -0.878647 -0.372611
										CHANNELS 3 Xrotation Yrotation Zrotation
										JOINT RightHandMiddle3
										{
											OFFSET -2.821922 -1.032684 -0.281561
											CHANNELS 3 Xrotation Yrotation Zrotation
											End Site
											{
												OFFSET 0.000000 3.018112 0.000000
											}
										}
									}
								}
								JOINT RightHandRing1
								{
									OFFSET -8.598557 0.164757 -2.798328
									CHANNELS 3 Xrotation Yrotation Zrotation
									JOINT RightHandRing2
									{
										OFFSET -3.527779 -0.934624 -0.398566
										CHANNELS 3 Xrotation Yrotation Zrotation
										JOINT RightHandRing3
										{
											OFFSET -2.593147 -0.815811 -0.237823
											CHANNELS 3 Xrotation Yrotation Zrotation
											End Site
											{
												OFFSET 0.000000 2.728836 0.000000
											}
										}
									}
								}
								JOINT RightHandPinky1
								{
									OFFSET -7.998985 -1.051277 -4.923038
									CHANNELS 3 Xrotation Yrotation Zrotation
									JOINT RightHandPinky2
									{
										OFFSET -2.859993 -0.756027 -0.815371
										CHANNELS 3 Xrotation Yrotation Zrotation
										JOINT RightHandPinky3
										{
											OFFSET -2.324310 -0.524582 -0.251251
											CHANNELS 3 Xrotation Yrotation Zrotation
											End Site
											{
												OFFSET 0.000000 2.395981 0.000000
											}
										}
									}
								}
							}
							JOINT RightSleeve
							{
								OFFSET -19.690090 -0.224159 -0.075961
								CHANNELS 3 Xrotation Yrotation Zrotation
								End Site
								{
									OFFSET 0.000000 25.731255 0.000000
								}
							}
						}
					}
				}
				JOINT Hood
				{
					OFFSET 0.369716 14.447853 -5.317849
					CHANNELS 3 Xrotation Yrotation Zrotation
					JOINT Hood1
					{
						OFFSET 0.001672 -5.553833 -5.895097
						CHANNELS 3 Xrotation Yrotation Zrotation
						JOINT Hood2
						{
							OFFSET -0.000161 -8.380455 0.763632
							CHANNELS 3 Xrotation Yrotation Zrotation
							End Site
							{
								OFFSET 0.000000 8.415169 0.000000
							}
						}
					}
				}
				JOINT Left_Breast
				{
					OFFSET 5.682508 3.120148 3.188847
					CHANNELS 3 Xrotation Yrotation Zrotation
					End Site
					{
						OFFSET 0.000000 10.528572 0.000000
					}
				}
				JOINT Right_Breast
				{
					OFFSET -4.947578 3.120087 3.185892
					CHANNELS 3 Xrotation Yrotation Zrotation
					End Site
					{
						OFFSET 0.000000 10.528572 0.000000
					}
				}
				JOINT Whistle
				{
					OFFSET 0.368230 11.471275 0.095403
					CHANNELS 3 Xrotation Yrotation Zrotation
					JOINT Whistle1
					{
						OFFSET -0.002040 -6.349861 7.479819
						CHANNELS 3 Xrotation Yrotation Zrotation
						JOINT Whistle2
						{
							OFFSET -0.001261 -8.217644 4.717561
							CHANNELS 3 Xrotation Yrotation Zrotation
							End Site
							{
								OFFSET 0.000000 9.475494 0.000000
							}
						}
					}
				}
			}
		}
		JOINT Belly
		{
			OFFSET 0.212380 1.592987 3.163679
			CHANNELS 3 Xrotation Yrotation Zrotation
			End Site
			{
				OFFSET 0.000000 7.496605 0.000000
			}
		}
	}
	JOINT FitGrandmaFacialAnim_Joint
	{
		OFFSET 1.280120 -86.211151 -1.082839
		CHANNELS 3 Xrotation Yrotation Zrotation
		End Site
		{
			OFFSET 0.000000 31.666611 0.000000
		}
	}
}
MOTION
Frames: 4
Frame Time: 0.016667
-1.209702 80.768387 0.428554 -5.534967 -36.528258 -3.556219 -0.000000 -6.467571 0.000000 -25.208466 5.910610 16.221872 35.007038 -15.620453 0.004802 -7.687748 1.186497 -9.788104 0.000000 -0.000004 0.000000 -0.000000 -0.000000 -0.000001 -0.000000 0.000001 0.000001 1.505614 -14.975255 -16.586462 33.309999 -7.394365 -0.597803 -26.338058 -6.029903 19.799359 0.000000 -0.000000 -0.000000 0.000001 0.000000 0.000000 -0.000000 0.000000 -0.000001 5.827990 -1.855475 -0.685681 11.839515 9.031703 -3.079605 11.839505 9.031709 -3.079606 -4.303141 -1.284335 0.197021 -6.271519 20.437786 -0.378349 -0.000000 -0.000000 0.000000 -0.000000 -0.000000 0.000000 -0.000000 -0.000000 0.000000 -0.000000 -0.000000 0.000000 -0.000000 -0.000000 0.000000 -0.000000 -0.000000 0.000000 -0.000000 -0.000000 0.000000 -0.000000 -0.000000 0.000000 -0.000000 -0.000000 0.000000 -0.000000 -0.000000 0.000000 -0.000000 -0.000000 0.000000 -0.000000 -0.000000 0.000000 -0.000000 -0.000000 0.000000 -0.000000 -0.000000 0.000000 -0.000000 -0.000000 0.000000 -0.000000 -0.000000 0.000000 -0.000000 -0.000000 0.000000 -0.000000 -0.000000 0.000000 -0.000000 -0.000000 0.000000 1.386279 -0.696153 -7.854301 -18.380235 0.320554 -63.002819 9.085138 -44.574289 4.760785 28.602066 6.470003 11.700073 3.228621 1.281603 0.180067 -6.358439 -5.509729 7.174303 -0.000000 -0.000002 0.000001 -0.538179 -5.241938 12.320573 -1.494177 -5.175121 -6.959019 -0.000001 -0.000000 -0.000002 0.801837 1.118824 1.566050 -3.951973 -6.044434 -13.143365 -0.000003 0.000000 -0.000001 -1.918362 1.872408 -12.940571 -6.823846 -6.766398 -28.059440 -0.000004 -0.000002 0.000002 -4.898055 -3.670718 -17.205591 -8.560371 -2.757004 -38.112094 0.000003 0.000001 0.000001 -0.000003 0.000000 -0.000001 1.402684 9.461281 9.763982 -3.128738 -21.922973 58.648273 -6.664515 38.809466 7.720024 19.244820 13.095038 14.837980 -14.468188 -0.397216 -5.803241 2.394583 -13.628970 -8.184126 -0.000002 -0.000001 0.000002 -1.484136 -2.534638 -9.781341 -1.428965 4.986612 7.525924 -0.000000 0.000002 -0.000000 -0.855511 5.327883 -4.771232 -6.193018 7.502462 21.687881 0.000000 -0.000001 -0.000002 0.454062 3.722159 2.402853 -8.770089 8.254884 33.262792 -0.000001 0.000000 0.000001 -0.883914 10.701779 5.910803 -10.086076 4.801887 39.296424 0.000000 -0.000002 -0.000001 0.000001 0.000001 -0.000001 -0.000001 -0.000002 0.000000 -0.000001 -0.000002 0.000000 -0.000001 -0.000002 0.000000 -0.000001 -0.000002 0.000000 -0.000001 -0.000002 0.000000 -0.000001 -0.000002 0.000000 -0.000001 -0.000002 0.000000 -0.000001 -0.000002 0.000000 -0.000000 -0.000004 0.000000 0.000000 0.000003 0.000000 
-1.138383 80.783401 0.451536 -5.081567 -36.554004 -3.402069 0.000000 -6.467574 0.000000 -25.581340 5.631234 16.225234 35.003032 -15.379004 0.058313 -7.609486 1.200970 -9.847519 0.000000 0.000002 0.000000 0.000001 0.000001 -0.000002 -0.000001 0.000001 0.000001 1.270819 -14.719341 -16.346176 33.118303 -7.688527 -0.596424 -26.120978 -6.029831 19.838904 -0.000000 0.000002 -0.000000 0.000002 0.000001 -0.000001 0.000000 0.000003 0.000001 5.811898 -1.972584 -0.692926 11.799048 8.799384 -3.072766 11.799046 8.799401 -3.072768 -4.422130 -1.092332 0.277848 -5.829504 20.627349 -0.313116 -0.000001 0.000000 0.000001 -0.000001 0.000000 0.000001 -0.000001 0.000000 0.000001 -0.000001 0.000000 0.000001 -0.000001 0.000000 0.000001 -0.000001 0.000000 0.000001 -0.000001 0.000000 0.000001 -0.000001 0.000000 0.000001 -0.000001 0.000000 0.000001 -0.000001 0.000000 0.000001 -0.000001 0.000000 0.000001 -0.000001 0.000000 0.000001 -0.000001 0.000000 0.000001 -0.000001 0.000000 0.000001 -0.000001 0.000000 0.000001 -0.000001 0.000000 0.000001 -0.000001 0.000000 0.000001 -0.000001 0.000000 0.000001 -0.000001 0.000000 0.000001 1.383090 -0.397814 -7.899646 -18.131427 0.623285 -62.475023 9.119446 -45.234072 4.853067 28.492021 6.406949 11.207275 2.938823 1.055608 0.252314 -6.339804 -5.462994 7.186255 0.000001 0.000000 -0.000003 -0.554107 -5.220020 12.197703 -1.502072 -5.191492 -7.011109 -0.000000 0.000001 -0.000001 0.779744 0.983591 1.580599 -3.922052 -6.015986 -13.034300 -0.000001 -0.000001 0.000001 -1.929336 1.805595 -12.773784 -6.761368 -6.732892 -27.844079 -0.000003 -0.000001 0.000001 -4.840033 -3.675846 -16.939202 -8.506331 -2.737528 -37.929072 0.000001 0.000001 0.000001 -0.000003 0.000002 -0.000001 1.380345 9.243848 9.840861 -3.514602 -20.862866 57.802798 -6.073014 38.794286 8.167682 18.747546 12.908816 14.453298 -14.532967 -0.210161 -5.893628 2.288768 -13.403931 -8.196123 -0.000000 0.000000 0.000001 -1.491600 -2.443405 -9.716030 -1.432968 4.994762 7.553825 0.000001 0.000000 0.000000 -0.861813 5.364601 -4.755206 -6.120385 7.452126 21.437792 0.000000 0.000001 0.000001 0.463795 3.699213 2.371386 -8.669140 8.209558 32.951069 -0.000000 0.000003 0.000001 -0.811949 10.594775 5.795923 -10.008178 4.770749 39.068122 0.000002 -0.000001 0.000000 0.000001 -0.000000 -0.000000 0.000001 0.000000 -0.000000 0.000001 0.000000 -0.000000 0.000001 0.000000 -0.000000 0.000001 0.000000 -0.000000 0.000001 0.000000 -0.000000 0.000001 0.000000 -0.000000 0.000001 0.000000 -0.000000 0.000001 0.000000 -0.000000 -0.000000 -0.000000 0.000000 -0.000000 -0.000002 -0.000000 
-0.918169 80.658417 0.420364 -4.331653 -36.650296 -2.942384 -0.000000 -6.467572 -0.000000 -26.510152 5.085066 15.938006 35.494864 -14.806021 0.261318 -7.611871 1.248852 -9.962474 0.000000 -0.000000 -0.000000 0.000000 -0.000000 0.000000 -0.000002 -0.000002 0.000001 0.129047 -14.174649 -16.451008 33.904205 -7.948011 -0.541750 -26.203146 -6.120813 19.959857 0.000000 0.000002 -0.000000 0.000000 -0.000000 -0.000001 0.000000 -0.000001 0.000000 5.836132 -2.178358 -0.678921 11.833213 8.390639 -3.031210 11.833216 8.390643 -3.031210 -4.921769 -0.745164 0.377361 -5.471392 20.932035 -0.687779 -0.000000 0.000000 -0.000000 -0.000000 0.000000 -0.000000 -0.000000 0.000000 -0.000000 -0.000000 0.000000 -0.000000 -0.000000 0.000000 -0.000000 -0.000000 0.000000 -0.000000 -0.000000 0.000000 -0.000000 -0.000000 0.000000 -0.000000 -0.000000 0.000000 -0.000000 -0.000000 0.000000 -0.000000 -0.000000 0.000000 -0.000000 -0.000000 0.000000 -0.000000 -0.000000 0.000000 -0.000000 -0.000000 0.000000 -0.000000 -0.000000 0.000000 -0.000000 -0.000000 0.000000 -0.000000 -0.000000 0.000000 -0.000000 -0.000000 0.000000 -0.000000 -0.000000 0.000000 -0.000000 1.353761 -0.084324 -8.087442 -17.795213 1.307328 -61.695951 8.946194 -46.848261 5.598733 28.297518 6.383236 10.316521 2.214643 0.419382 0.323874 -6.307794 -5.377341 7.212010 0.000001 -0.000001 -0.000002 -0.599265 -5.193538 11.890346 -1.524296 -5.237361 -7.157398 -0.000000 -0.000000 0.000001 0.724681 0.657674 1.591650 -3.858278 -5.954863 -12.801065 0.000001 0.000000 -0.000001 -1.950934 1.647283 -12.407337 -6.621935 -6.656898 -27.361475 -0.000001 0.000000 0.000001 -4.693610 -3.675785 -16.343372 -8.386452 -2.693545 -37.522167 -0.000000 0.000001 0.000000 0.000001 0.000003 -0.000002 1.366464 8.740147 9.861466 -3.979926 -19.590016 56.504092 -5.132171 39.974679 8.063351 18.422644 12.224356 14.421758 -14.733312 0.287342 -6.074246 2.025862 -12.851222 -8.222315 0.000000 -0.000000 0.000000 -1.516119 -2.201270 -9.555286 -1.444422 5.018066 7.634052 0.000000 0.000001 -0.000001 -0.878150 5.454628 -4.705690 -5.949976 7.337349 20.865055 -0.000000 0.000001 0.000000 0.486248 3.636205 2.316530 -8.442983 8.100090 32.232756 -0.000001 0.000001 -0.000000 -0.634973 10.322162 5.550841 -9.830365 4.698205 38.546019 0.000001 -0.000001 0.000001 -0.000000 -0.000000 -0.000001 -0.000002 0.000000 -0.000001 -0.000002 0.000000 -0.000001 -0.000002 0.000000 -0.000001 -0.000002 0.000000 -0.000001 -0.000002 0.000000 -0.000001 -0.000002 0.000000 -0.000001 -0.000002 0.000000 -0.000001 -0.000002 0.000000 -0.000001 -0.000000 -0.000000 -0.000000 -0.000000 0.000001 -0.000000 
-0.530527 80.333237 0.335373 -3.153149 -36.885559 -2.137995 -0.000000 -6.467570 0.000000 -28.295575 4.372805 15.545422 36.726784 -14.018038 0.494718 -7.783128 1.295940 -10.023844 -0.000000 0.000004 0.000000 0.000001 0.000003 -0.000000 0.000001 -0.000003 0.000001 -2.154796 -13.315183 -16.910638 35.871604 -8.064016 -0.409875 -26.660966 -6.281948 20.137134 -0.000000 -0.000002 0.000000 -0.000001 0.000001 -0.000000 0.000000 -0.000001 0.000000 5.895878 -2.426235 -0.643900 11.935585 7.898665 -2.958466 11.935588 7.898657 -2.958463 -5.669654 -0.289492 0.470747 -5.266490 21.333572 -1.343459 -0.000001 0.000000 -0.000000 -0.000001 0.000000 -0.000000 -0.000001 0.000000 -0.000000 -0.000001 0.000000 -0.000000 -0.000001 0.000000 -0.000000 -0.000001 0.000000 -0.000000 -0.000001 0.000000 -0.000000 -0.000001 0.000000 -0.000000 -0.000001 0.000000 -0.000000 -0.000001 0.000000 -0.000000 -0.000001 0.000000 -0.000000 -0.000001 0.000000 -0.000000 -0.000001 0.000000 -0.000000 -0.000001 0.000000 -0.000000 -0.000001 0.000000 -0.000000 -0.000001 0.000000 -0.000000 -0.000001 0.000000 -0.000000 -0.000001 0.000000 -0.000000 -0.000001 0.000000 -0.000000 1.309653 0.214992 -8.386872 -17.385365 2.247434 -60.842683 8.638501 -49.128659 6.713507 28.070486 6.279271 9.460574 1.183276 -0.583129 0.300424 -6.277565 -5.288121 7.244451 0.000002 0.000001 -0.000000 -0.671011 -5.185847 11.447281 -1.559035 -5.308864 -7.385481 -0.000002 0.000000 -0.000001 0.641623 0.202075 1.579257 -3.778549 -5.877923 -12.508584 -0.000001 0.000001 -0.000004 -1.972600 1.428173 -11.934917 -6.443447 -6.553372 -26.727483 -0.000003 0.000001 -0.000001 -4.477088 -3.662608 -15.563279 -8.230549 -2.634997 -36.991697 0.000001 0.000001 0.000001 -0.000002 0.000002 0.000000 1.342446 8.063065 9.835841 -4.430481 -18.333192 55.002062 -3.965095 42.115295 7.527815 18.362205 11.342446 14.354556 -15.058778 1.037396 -6.279088 1.653255 -12.064313 -8.255148 0.000001 -0.000000 0.000001 -1.559172 -1.837835 -9.326338 -1.462614 5.054788 7.760707 -0.000001 -0.000000 0.000001 -0.908749 5.582323 -4.621653 -5.723121 7.180606 20.097162 -0.000000 -0.000001 -0.000001 0.516311 3.539296 2.263156 -8.140425 7.948084 31.265512 -0.000000 0.000000 0.000002 -0.385575 9.923107 5.244801 -9.593183 4.598467 37.847007 0.000001 0.000001 -0.000001 0.000001 -0.000000 -0.000001 -0.000002 -0.000000 0.000000 -0.000002 -0.000000 0.000000 -0.000002 -0.000000 0.000000 -0.000002 -0.000000 0.000000 -0.000002 -0.000000 0.000000 -0.000002 -0.000000 0.000000 -0.000002 -0.000000 0.000000 -0.000002 -0.000000 0.000000 0.000000 -0.000000 -0.000000 0.000000 0.000003 0.000000 
